<?xml version="1.0" encoding="UTF-8" standalone="no"?><!DOCTYPE svg PUBLIC "-//W3C//DTD SVG 1.1//EN" "http://www.w3.org/Graphics/SVG/1.1/DTD/svg11.dtd"><!-- Generated by graphviz version 2.40.1 (20161225.0304)
 --><!-- Title: G Pages: 1 --><svg xmlns="http://www.w3.org/2000/svg" xmlns:xlink="http://www.w3.org/1999/xlink" width="152pt" height="148pt" viewBox="0.00 0.00 152.24 148.20">
<g id="graph0" class="graph" transform="scale(1 1) rotate(0) translate(4 144.2012)">
<title>G</title>
<polygon fill="#ffffff" stroke="transparent" points="-4,4 -4,-144.2012 148.2409,-144.2012 148.2409,4 -4,4"/>
<!-- v1 -->
<g id="node1" class="node">
<title>v1</title>
<ellipse fill="none" stroke="#000000" cx="27" cy="-18" rx="27" ry="18"/>
<text text-anchor="middle" x="27" y="-13.8" font-family="Times,serif" font-size="14.00" fill="#000000">v1</text>
</g>
<!-- v1&#45;&#45;v1 -->
<g id="edge1" class="edge">
<title>v1--v1</title>
<path fill="none" stroke="#000000" d="M52.4435,-24.6907C63.0278,-25.1521 72,-22.9219 72,-18 72,-13.0781 63.0278,-10.8479 52.4435,-11.3093"/>
</g>
<!-- v2 -->
<g id="node2" class="node">
<title>v2</title>
<ellipse fill="none" stroke="#000000" cx="27" cy="-122.2012" rx="27" ry="18"/>
<text text-anchor="middle" x="27" y="-118.0012" font-family="Times,serif" font-size="14.00" fill="#000000">v2</text>
</g>
<!-- v1&#45;&#45;v2 -->
<g id="edge2" class="edge">
<title>v1--v2</title>
<path fill="none" stroke="#000000" d="M27,-36.1505C27,-55.1593 27,-84.8474 27,-103.9091"/>
</g>
<!-- v3 -->
<g id="node3" class="node">
<title>v3</title>
<ellipse fill="none" stroke="#000000" cx="117.2409" cy="-70.1006" rx="27" ry="18"/>
<text text-anchor="middle" x="117.2409" y="-65.9006" font-family="Times,serif" font-size="14.00" fill="#000000">v3</text>
</g>
<!-- v1&#45;&#45;v3 -->
<g id="edge3" class="edge">
<title>v1--v3</title>
<path fill="none" stroke="#000000" d="M47.477,-29.8224C62.1415,-38.289 81.8157,-49.6479 96.5325,-58.1446"/>
</g>
<!-- v2&#45;&#45;v2 -->
<g id="edge4" class="edge">
<title>v2--v2</title>
<path fill="none" stroke="#000000" d="M52.4435,-128.8918C63.0278,-129.3533 72,-127.123 72,-122.2012 72,-117.2793 63.0278,-115.0491 52.4435,-115.5105"/>
</g>
<!-- v2&#45;&#45;v3 -->
<g id="edge5" class="edge">
<title>v2--v3</title>
<path fill="none" stroke="#000000" d="M51.7839,-114.6798C67.8594,-106.8661 88.2474,-94.958 101.9978,-85.2775"/>
</g>
<!-- v2&#45;&#45;v3 -->
<g id="edge6" class="edge">
<title>v2--v3</title>
<path fill="none" stroke="#000000" d="M42.0768,-107.1414C55.8005,-97.4599 76.2326,-85.5162 92.3576,-77.6703"/>
</g>
</g>
</svg>