<?xml version="1.0" encoding="UTF-8" standalone="no"?><!DOCTYPE svg PUBLIC "-//W3C//DTD SVG 1.1//EN" "http://www.w3.org/Graphics/SVG/1.1/DTD/svg11.dtd"><!-- Generated by graphviz version 2.40.1 (20161225.0304)
 --><!-- Title: G Pages: 1 --><svg xmlns="http://www.w3.org/2000/svg" xmlns:xlink="http://www.w3.org/1999/xlink" width="240pt" height="204pt" viewBox="0.00 0.00 240.43 204.43">
<g id="graph0" class="graph" transform="scale(1 1) rotate(0) translate(4 200.4282)">
<title>G</title>
<polygon fill="#ffffff" stroke="transparent" points="-4,4 -4,-200.4282 236.4282,-200.4282 236.4282,4 -4,4"/>
<!-- v1 -->
<g id="node1" class="node">
<title>v1</title>
<ellipse fill="none" stroke="#000000" cx="107.2141" cy="-18" rx="27" ry="18"/>
<text text-anchor="middle" x="107.2141" y="-13.8" font-family="Times,serif" font-size="14.00" fill="#000000">v1</text>
</g>
<!-- v1&#45;&gt;v1 -->
<g id="edge1" class="edge">
<title>v1-&gt;v1</title>
<path fill="none" stroke="#000000" d="M132.6576,-24.6907C143.2419,-25.1521 152.2141,-22.9219 152.2141,-18 152.2141,-14.77 148.3501,-12.6992 142.7022,-11.7876"/>
<polygon fill="#000000" stroke="#000000" points="142.8128,-8.289 132.6576,-11.3093 142.4797,-15.2811 142.8128,-8.289"/>
</g>
<!-- v3 -->
<g id="node2" class="node">
<title>v3</title>
<ellipse fill="none" stroke="#000000" cx="187.4282" cy="-98.2141" rx="27" ry="18"/>
<text text-anchor="middle" x="187.4282" y="-94.0141" font-family="Times,serif" font-size="14.00" fill="#000000">v3</text>
</g>
<!-- v1&#45;&gt;v3 -->
<g id="edge2" class="edge">
<title>v1-&gt;v3</title>
<path fill="none" stroke="#000000" d="M116.8067,-34.8989C127.4421,-47.9087 144.7846,-65.7377 159.6695,-79.2211"/>
<polygon fill="#000000" stroke="#000000" points="157.3603,-81.8512 167.1807,-85.8273 161.9833,-76.5949 157.3603,-81.8512"/>
</g>
<!-- v4 -->
<g id="node3" class="node">
<title>v4</title>
<ellipse fill="none" stroke="#000000" cx="107.2141" cy="-178.4282" rx="27" ry="18"/>
<text text-anchor="middle" x="107.2141" y="-174.2282" font-family="Times,serif" font-size="14.00" fill="#000000">v4</text>
</g>
<!-- v1&#45;&gt;v4 -->
<g id="edge3" class="edge">
<title>v1-&gt;v4</title>
<path fill="none" stroke="#000000" d="M102.7815,-35.7816C100.0078,-63.4872 99.724,-117.1983 101.93,-150.2265"/>
<polygon fill="#000000" stroke="#000000" points="98.472,-150.8847 102.7736,-160.567 105.4488,-150.3154 98.472,-150.8847"/>
</g>
<!-- v1&#45;&gt;v4 -->
<g id="edge4" class="edge">
<title>v1-&gt;v4</title>
<path fill="none" stroke="#000000" d="M111.6467,-35.7816C114.4204,-63.4872 114.7042,-117.1983 112.4982,-150.2265"/>
<polygon fill="#000000" stroke="#000000" points="108.9794,-150.3154 111.6546,-160.567 115.9562,-150.8847 108.9794,-150.3154"/>
</g>
<!-- v3&#45;&gt;v1 -->
<g id="edge7" class="edge">
<title>v3-&gt;v1</title>
<path fill="none" stroke="#000000" d="M177.8356,-81.3152C167.2002,-68.3054 149.8576,-50.4764 134.9728,-36.993"/>
<polygon fill="#000000" stroke="#000000" points="137.282,-34.3629 127.4616,-30.3868 132.659,-39.6192 137.282,-34.3629"/>
</g>
<!-- v3&#45;&gt;v3 -->
<g id="edge9" class="edge">
<title>v3-&gt;v3</title>
<path fill="none" stroke="#000000" d="M212.8717,-104.9048C223.456,-105.3662 232.4282,-103.136 232.4282,-98.2141 232.4282,-94.9841 228.5642,-92.9133 222.9163,-92.0017"/>
<polygon fill="#000000" stroke="#000000" points="223.0269,-88.5031 212.8717,-91.5234 222.6938,-95.4952 223.0269,-88.5031"/>
</g>
<!-- v2 -->
<g id="node4" class="node">
<title>v2</title>
<ellipse fill="none" stroke="#000000" cx="27" cy="-98.2141" rx="27" ry="18"/>
<text text-anchor="middle" x="27" y="-94.0141" font-family="Times,serif" font-size="14.00" fill="#000000">v2</text>
</g>
<!-- v3&#45;&gt;v2 -->
<g id="edge8" class="edge">
<title>v3-&gt;v2</title>
<path fill="none" stroke="#000000" d="M160.2137,-98.2141C133.86,-98.2141 93.6913,-98.2141 64.353,-98.2141"/>
<polygon fill="#000000" stroke="#000000" points="64.0797,-94.714 54.0798,-98.2141 64.0798,-101.714 64.0797,-94.714"/>
</g>
<!-- v4&#45;&gt;v3 -->
<g id="edge11" class="edge">
<title>v4-&gt;v3</title>
<path fill="none" stroke="#000000" d="M127.3701,-166.1191C140.8615,-154.6596 158.2872,-137.4433 170.9547,-123.1627"/>
<polygon fill="#000000" stroke="#000000" points="173.9592,-125.0345 177.7976,-115.1594 168.6388,-120.4854 173.9592,-125.0345"/>
</g>
<!-- v4&#45;&gt;v3 -->
<g id="edge12" class="edge">
<title>v4-&gt;v3</title>
<path fill="none" stroke="#000000" d="M116.8067,-161.5293C127.4421,-148.5195 144.7846,-130.6905 159.6695,-117.2071"/>
<polygon fill="#000000" stroke="#000000" points="161.9833,-119.8333 167.1807,-110.6008 157.3603,-114.577 161.9833,-119.8333"/>
</g>
<!-- v4&#45;&gt;v2 -->
<g id="edge10" class="edge">
<title>v4-&gt;v2</title>
<path fill="none" stroke="#000000" d="M92.1264,-163.3405C80.0262,-151.2403 62.8673,-134.0814 49.1996,-120.4137"/>
<polygon fill="#000000" stroke="#000000" points="51.566,-117.8303 42.02,-113.2341 46.6162,-122.7801 51.566,-117.8303"/>
</g>
<!-- v2&#45;&gt;v1 -->
<g id="edge5" class="edge">
<title>v2-&gt;v1</title>
<path fill="none" stroke="#000000" d="M42.0877,-83.1264C54.1879,-71.0262 71.3468,-53.8673 85.0145,-40.1996"/>
<polygon fill="#000000" stroke="#000000" points="87.5979,-42.566 92.1941,-33.02 82.6481,-37.6162 87.5979,-42.566"/>
</g>
<!-- v2&#45;&gt;v2 -->
<g id="edge6" class="edge">
<title>v2-&gt;v2</title>
<path fill="none" stroke="#000000" d="M52.4435,-104.9048C63.0278,-105.3662 72,-103.136 72,-98.2141 72,-94.9841 68.136,-92.9133 62.4881,-92.0017"/>
<polygon fill="#000000" stroke="#000000" points="62.5987,-88.5031 52.4435,-91.5234 62.2656,-95.4952 62.5987,-88.5031"/>
</g>
</g>
</svg>